<?xml version="1.0" encoding="UTF-8"?>
<!DOCTYPE svg PUBLIC "-//W3C//DTD SVG 1.1//EN" "http://www.w3.org/Graphics/SVG/1.1/DTD/svg11.dtd">
<svg xmlns="http://www.w3.org/2000/svg" version="1.1" width="500px" height="500px" style="shape-rendering:geometricPrecision; text-rendering:geometricPrecision; image-rendering:optimizeQuality; fill-rule:evenodd; clip-rule:evenodd" xmlns:xlink="http://www.w3.org/1999/xlink">
<g><path style="opacity:1" fill="#669ad2" d="M 273.5,6.5 C 275.008,9.09259 277.341,10.4259 280.5,10.5C 283.223,13.8658 287.223,16.1992 292.5,17.5C 295.073,19.8314 297.74,22.1647 300.5,24.5C 304.496,26.1627 308.163,28.3294 311.5,31C 313.813,31.662 316.146,32.162 318.5,32.5C 323.5,34.6643 328.167,37.331 332.5,40.5C 333.09,42.0972 334.09,43.4305 335.5,44.5C 338.713,46.8854 342.047,49.0521 345.5,51C 348.014,52.2525 350.68,52.7525 353.5,52.5C 357.173,54.0002 360.506,56.0002 363.5,58.5C 368.364,63.1024 374.031,66.4357 380.5,68.5C 380.833,68.5 381.167,68.5 381.5,68.5C 383.348,70.4696 385.348,72.4696 387.5,74.5C 390.889,76.2298 394.056,78.2298 397,80.5C 400.654,81.4861 403.82,83.3194 406.5,86C 410.009,87.7594 413.675,88.926 417.5,89.5C 418.346,91.9375 419.679,94.1041 421.5,96C 424.194,95.3881 426.86,95.5548 429.5,96.5C 431.336,98.588 433.669,99.9213 436.5,100.5C 437.492,100.328 438.158,100.662 438.5,101.5C 439.476,102.815 440.476,104.148 441.5,105.5C 445.52,107.657 449.52,109.657 453.5,111.5C 454.031,114.779 456.031,116.113 459.5,115.5C 462.933,118.601 465.6,122.268 467.5,126.5C 466.262,125.588 464.928,125.421 463.5,126C 434.611,142.273 405.944,158.773 377.5,175.5C 353.52,135.149 318.186,111.149 271.5,103.5C 267.455,101.823 263.122,101.156 258.5,101.5C 251.5,101.5 244.5,101.5 237.5,101.5C 232.586,101.362 227.919,102.028 223.5,103.5C 213.129,105.012 203.129,107.846 193.5,112C 186.766,114.93 180.433,118.43 174.5,122.5C 154.707,133.455 138.54,148.455 126,167.5C 116.309,181.882 109.309,197.549 105,214.5C 103.925,218.77 103.425,223.103 103.5,227.5C 102.778,227.918 102.278,228.584 102,229.5C 101.174,241.008 101.341,252.341 102.5,263.5C 103.902,285.12 110.235,305.12 121.5,323.5C 93.3849,340.063 65.0515,356.396 36.5,372.5C 36.1667,373.333 35.8333,374.167 35.5,375C 36.0329,377.226 36.6996,379.393 37.5,381.5C 35.6736,379.853 34.3403,377.853 33.5,375.5C 35.0337,373.658 34.7003,372.325 32.5,371.5C 31.5,368.167 30.5,364.833 29.5,361.5C 28.5,285.836 28.1667,210.17 28.5,134.5C 29.258,128.984 31.5914,124.317 35.5,120.5C 37.5869,119.415 38.9202,117.749 39.5,115.5C 54.097,107.112 69.097,99.279 84.5,92C 84.1667,91.6667 83.8333,91.3333 83.5,91C 85.1412,89.871 86.1412,88.371 86.5,86.5C 91.1979,84.1193 96.1979,83.1193 101.5,83.5C 102.339,79.1635 105.006,76.6635 109.5,76C 111.384,74.9513 112.718,73.4513 113.5,71.5C 114.873,71.6567 116.207,71.49 117.5,71C 121.958,68.4782 126.291,65.8116 130.5,63C 133.486,63.1276 136.486,63.1276 139.5,63C 138.241,62.0766 136.908,61.2432 135.5,60.5C 137.409,58.9201 139.075,57.2535 140.5,55.5C 142.848,55.4077 144.514,54.4077 145.5,52.5C 147.336,50.412 149.669,49.0787 152.5,48.5C 156.316,47.0906 159.983,45.424 163.5,43.5C 165.435,42.8505 167.435,42.5172 169.5,42.5C 169.272,44.3547 169.939,45.1881 171.5,45C 171.306,43.5701 171.306,42.0701 171.5,40.5C 175.058,38.645 178.725,36.9784 182.5,35.5C 184.828,32.8333 187.162,30.1666 189.5,27.5C 191.527,27.6621 193.527,27.4955 195.5,27C 200.489,23.0485 205.822,19.5485 211.5,16.5C 212.425,15.6431 213.092,14.6431 213.5,13.5C 215.336,11.412 217.669,10.0787 220.5,9.5C 225.739,9.00436 229.739,6.67103 232.5,2.5C 236.167,1.83333 239.833,1.16667 243.5,0.5C 243.351,1.55198 243.517,2.55198 244,3.5C 245.986,1.2585 248.486,0.2585 251.5,0.5C 259.003,1.89009 266.336,3.89009 273.5,6.5 Z"/></g>
<g><path style="opacity:0.998" fill="#94b5d9" d="M 238.5,-0.5 C 245.833,-0.5 253.167,-0.5 260.5,-0.5C 265.248,1.04098 269.581,3.37431 273.5,6.5C 266.336,3.89009 259.003,1.89009 251.5,0.5C 248.486,0.2585 245.986,1.2585 244,3.5C 243.517,2.55198 243.351,1.55198 243.5,0.5C 239.833,1.16667 236.167,1.83333 232.5,2.5C 234.5,1.5 236.5,0.5 238.5,-0.5 Z"/></g>
<g><path style="opacity:1" fill="#9ebcdb" d="M 232.5,2.5 C 229.739,6.67103 225.739,9.00436 220.5,9.5C 223.976,6.37683 227.976,4.0435 232.5,2.5 Z"/></g>
<g><path style="opacity:1" fill="#b4cfe4" d="M 273.5,6.5 C 276.331,7.0787 278.664,8.41203 280.5,10.5C 277.341,10.4259 275.008,9.09259 273.5,6.5 Z"/></g>
<g><path style="opacity:0.855" fill="#b4cfe9" d="M 280.5,10.5 C 285.024,12.0435 289.024,14.3768 292.5,17.5C 287.223,16.1992 283.223,13.8658 280.5,10.5 Z"/></g>
<g><path style="opacity:0.89" fill="#8fb3d8" d="M 213.5,13.5 C 213.092,14.6431 212.425,15.6431 211.5,16.5C 205.822,19.5485 200.489,23.0485 195.5,27C 193.527,27.4955 191.527,27.6621 189.5,27.5C 197.164,22.332 205.164,17.6653 213.5,13.5 Z"/></g>
<g><path style="opacity:0.973" fill="#95b6d9" d="M 292.5,17.5 C 301.501,21.9981 310.168,26.9981 318.5,32.5C 316.146,32.162 313.813,31.662 311.5,31C 308.163,28.3294 304.496,26.1627 300.5,24.5C 297.74,22.1647 295.073,19.8314 292.5,17.5 Z"/></g>
<g><path style="opacity:1" fill="#7ba3ce" d="M 189.5,27.5 C 187.162,30.1666 184.828,32.8333 182.5,35.5C 178.725,36.9784 175.058,38.645 171.5,40.5C 171.306,42.0701 171.306,43.5701 171.5,45C 169.939,45.1881 169.272,44.3547 169.5,42.5C 167.435,42.5172 165.435,42.8505 163.5,43.5C 163.833,42.8333 164.167,42.1667 164.5,41.5C 172.664,36.5834 180.997,31.9167 189.5,27.5 Z"/></g>
<g><path style="opacity:0.043" fill="#e5f8ff" d="M 338.5,43.5 C 340.027,43.427 341.027,44.0937 341.5,45.5C 339.973,45.573 338.973,44.9063 338.5,43.5 Z"/></g>
<g><path style="opacity:0.157" fill="#d9ebf9" d="M 164.5,41.5 C 164.167,42.1667 163.833,42.8333 163.5,43.5C 159.983,45.424 156.316,47.0906 152.5,48.5C 155.976,45.3768 159.976,43.0435 164.5,41.5 Z"/></g>
<g><path style="opacity:0.89" fill="#9cb9d8" d="M 332.5,40.5 C 334.819,40.9925 336.819,41.9925 338.5,43.5C 338.973,44.9063 339.973,45.573 341.5,45.5C 346.024,47.0435 350.024,49.3768 353.5,52.5C 350.68,52.7525 348.014,52.2525 345.5,51C 342.047,49.0521 338.713,46.8854 335.5,44.5C 334.09,43.4305 333.09,42.0972 332.5,40.5 Z"/></g>
<g><path style="opacity:0.404" fill="#c4daef" d="M 145.5,52.5 C 144.514,54.4077 142.848,55.4077 140.5,55.5C 141.659,53.7497 143.326,52.7497 145.5,52.5 Z"/></g>
<g><path style="opacity:0.941" fill="#a6c1de" d="M 363.5,58.5 C 369.668,61.0804 375.335,64.4137 380.5,68.5C 374.031,66.4357 368.364,63.1024 363.5,58.5 Z"/></g>
<g><path style="opacity:0.961" fill="#8db0d8" d="M 140.5,55.5 C 139.075,57.2535 137.409,58.9201 135.5,60.5C 136.908,61.2432 138.241,62.0766 139.5,63C 136.486,63.1276 133.486,63.1276 130.5,63C 126.291,65.8116 121.958,68.4782 117.5,71C 116.207,71.49 114.873,71.6567 113.5,71.5C 121.997,65.4143 130.997,60.0809 140.5,55.5 Z"/></g>
<g><path style="opacity:0.922" fill="#99b8d7" d="M 381.5,68.5 C 393.535,75.515 405.535,82.515 417.5,89.5C 413.675,88.926 410.009,87.7594 406.5,86C 403.82,83.3194 400.654,81.4861 397,80.5C 394.056,78.2298 390.889,76.2298 387.5,74.5C 385.348,72.4696 383.348,70.4696 381.5,68.5 Z"/></g>
<g><path style="opacity:1" fill="#89acd4" d="M 113.5,71.5 C 112.718,73.4513 111.384,74.9513 109.5,76C 105.006,76.6635 102.339,79.1635 101.5,83.5C 96.1979,83.1193 91.1979,84.1193 86.5,86.5C 95.2403,81.1071 104.24,76.1071 113.5,71.5 Z"/></g>
<g><path style="opacity:0.99" fill="#85aad2" d="M 86.5,86.5 C 86.1412,88.371 85.1412,89.871 83.5,91C 83.8333,91.3333 84.1667,91.6667 84.5,92C 69.097,99.279 54.097,107.112 39.5,115.5C 42.0595,112.542 45.0595,110.042 48.5,108C 53.7287,104.887 59.062,102.053 64.5,99.5C 66.8477,99.4077 68.5144,98.4077 69.5,96.5C 71.8477,96.4077 73.5144,95.4077 74.5,93.5C 78.1638,90.6654 82.1638,88.332 86.5,86.5 Z"/></g>
<g><path style="opacity:1" fill="#94b7db" d="M 417.5,89.5 C 422.024,91.0435 426.024,93.3768 429.5,96.5C 426.86,95.5548 424.194,95.3881 421.5,96C 419.679,94.1041 418.346,91.9375 417.5,89.5 Z"/></g>
<g><path style="opacity:0.416" fill="#c2d8f0" d="M 74.5,93.5 C 73.5144,95.4077 71.8477,96.4077 69.5,96.5C 70.6594,94.7497 72.326,93.7497 74.5,93.5 Z"/></g>
<g><path style="opacity:0.267" fill="#cfe3f7" d="M 429.5,96.5 C 432.331,97.0787 434.664,98.412 436.5,100.5C 433.669,99.9213 431.336,98.588 429.5,96.5 Z"/></g>
<g><path style="opacity:0.467" fill="#bcd6eb" d="M 69.5,96.5 C 68.5144,98.4077 66.8477,99.4077 64.5,99.5C 65.6594,97.7497 67.326,96.7497 69.5,96.5 Z"/></g>
<g><path style="opacity:1" fill="#afc9e5" d="M 258.5,102.5 C 258.5,102.167 258.5,101.833 258.5,101.5C 263.122,101.156 267.455,101.823 271.5,103.5C 267.176,103.073 262.842,102.739 258.5,102.5 Z"/></g>
<g><path style="opacity:1" fill="#b3caeb" d="M 237.5,101.5 C 233.081,102.972 228.414,103.638 223.5,103.5C 227.919,102.028 232.586,101.362 237.5,101.5 Z"/></g>
<g><path style="opacity:1" fill="#fdfefe" d="M 258.5,102.5 C 262.842,102.739 267.176,103.073 271.5,103.5C 318.186,111.149 353.52,135.149 377.5,175.5C 356.869,187.485 336.202,199.485 315.5,211.5C 309.183,204.678 302.516,197.845 295.5,191C 288.148,185.824 280.148,181.991 271.5,179.5C 250.297,172.461 229.963,174.627 210.5,186C 204.708,189.625 199.708,194.125 195.5,199.5C 189.549,204.711 185.049,211.044 182,218.5C 172.063,242.372 173.563,265.372 186.5,287.5C 193.239,299.24 202.572,308.24 214.5,314.5C 214.973,315.906 215.973,316.573 217.5,316.5C 225.033,319.3 232.7,321.633 240.5,323.5C 248.235,324.181 256.068,324.848 264,325.5C 266.181,323.737 268.347,322.07 270.5,320.5C 276.107,318.121 281.774,315.621 287.5,313C 289.093,312.051 290.426,310.885 291.5,309.5C 300.963,304.039 307.963,296.372 312.5,286.5C 312.833,286.5 313.167,286.5 313.5,286.5C 333.842,298.673 354.509,310.34 375.5,321.5C 376.984,322.473 377.484,323.807 377,325.5C 354.811,360.511 323.645,383.178 283.5,393.5C 279.96,393.753 276.627,394.419 273.5,395.5C 270.904,396.265 268.237,396.599 265.5,396.5C 252.149,396.666 238.815,396.333 225.5,395.5C 223.194,395.007 220.861,394.674 218.5,394.5C 212.101,391.926 205.435,389.926 198.5,388.5C 165.193,375.858 139.527,354.191 121.5,323.5C 110.235,305.12 103.902,285.12 102.5,263.5C 102.251,251.469 102.584,239.469 103.5,227.5C 103.425,223.103 103.925,218.77 105,214.5C 109.309,197.549 116.309,181.882 126,167.5C 138.54,148.455 154.707,133.455 174.5,122.5C 185.868,117.851 197.201,113.018 208.5,108C 225.034,104.891 241.701,103.057 258.5,102.5 Z"/></g>
<g><path style="opacity:0.982" fill="#8cafd4" d="M 438.5,101.5 C 446.369,104.929 453.369,109.596 459.5,115.5C 456.031,116.113 454.031,114.779 453.5,111.5C 449.52,109.657 445.52,107.657 441.5,105.5C 440.476,104.148 439.476,102.815 438.5,101.5 Z"/></g>
<g><path style="opacity:1" fill="#e7f6fc" d="M 237.5,101.5 C 244.5,101.5 251.5,101.5 258.5,101.5C 258.5,101.833 258.5,102.167 258.5,102.5C 241.701,103.057 225.034,104.891 208.5,108C 197.201,113.018 185.868,117.851 174.5,122.5C 180.433,118.43 186.766,114.93 193.5,112C 203.129,107.846 213.129,105.012 223.5,103.5C 228.414,103.638 233.081,102.972 237.5,101.5 Z"/></g>
<g><path style="opacity:0.533" fill="#b3c9e2" d="M 39.5,115.5 C 38.9202,117.749 37.5869,119.415 35.5,120.5C 36.0798,118.251 37.4131,116.585 39.5,115.5 Z"/></g>
<g><path style="opacity:1" fill="#01589c" d="M 467.5,126.5 C 468.674,127.514 469.34,128.847 469.5,130.5C 469.674,132.861 470.007,135.194 470.5,137.5C 470.667,211.501 470.5,285.501 470,359.5C 468.625,361.937 468.125,364.603 468.5,367.5C 467.168,369.138 465.834,370.804 464.5,372.5C 447.961,364.636 431.961,355.636 416.5,345.5C 404.093,338.822 391.759,332.155 379.5,325.5C 379.5,324.167 379.5,322.833 379.5,321.5C 378.167,321.5 376.833,321.5 375.5,321.5C 354.509,310.34 333.842,298.673 313.5,286.5C 292.755,273.76 271.755,261.427 250.5,249.5C 271.697,236.067 293.364,223.4 315.5,211.5C 336.202,199.485 356.869,187.485 377.5,175.5C 405.944,158.773 434.611,142.273 463.5,126C 464.928,125.421 466.262,125.588 467.5,126.5 Z"/></g>
<g><path style="opacity:0.518" fill="#a2c1d7" d="M 469.5,130.5 C 470.924,132.515 471.59,134.848 471.5,137.5C 471.167,137.5 470.833,137.5 470.5,137.5C 470.007,135.194 469.674,132.861 469.5,130.5 Z"/></g>
<g><path style="opacity:0.875" fill="#9ab8d9" d="M 28.5,134.5 C 28.1667,210.17 28.5,285.836 29.5,361.5C 30.5,364.833 31.5,368.167 32.5,371.5C 34.7003,372.325 35.0337,373.658 33.5,375.5C 29.7401,371.302 27.5734,366.302 27,360.5C 26.3333,286.5 26.3333,212.5 27,138.5C 27.21,136.942 27.71,135.609 28.5,134.5 Z"/></g>
<g><path style="opacity:0.772" fill="#5c88b3" d="M 470.5,137.5 C 470.833,137.5 471.167,137.5 471.5,137.5C 472.831,211.931 472.831,286.264 471.5,360.5C 469.98,362.588 468.98,364.922 468.5,367.5C 468.125,364.603 468.625,361.937 470,359.5C 470.5,285.501 470.667,211.501 470.5,137.5 Z"/></g>
<g><path style="opacity:1" fill="#669ad2" d="M 271.5,179.5 C 280.148,181.991 288.148,185.824 295.5,191C 302.516,197.845 309.183,204.678 315.5,211.5C 293.364,223.4 271.697,236.067 250.5,249.5C 229.231,260.803 208.231,272.636 187.5,285C 186.748,285.671 186.414,286.504 186.5,287.5C 173.563,265.372 172.063,242.372 182,218.5C 185.049,211.044 189.549,204.711 195.5,199.5C 198.156,197.85 200.822,196.184 203.5,194.5C 205.088,195.01 206.255,196.01 207,197.5C 207.49,196.207 207.657,194.873 207.5,193.5C 203.939,193.085 204.106,192.085 208,190.5C 210.064,191.591 212.231,191.758 214.5,191C 210.639,189.343 210.639,187.843 214.5,186.5C 217.257,190.436 219.924,190.269 222.5,186C 224.473,185.505 226.473,185.338 228.5,185.5C 228.5,184.167 228.5,182.833 228.5,181.5C 227.127,181.657 225.793,181.49 224.5,181C 227.76,180.216 230.927,180.383 234,181.5C 234.617,180.551 234.451,179.718 233.5,179C 236.099,178.231 238.599,178.398 241,179.5C 244.667,176.947 248.5,176.447 252.5,178C 258.849,178.406 265.183,178.906 271.5,179.5 Z"/></g>
<g><path style="opacity:1" fill="#6c9ccd" d="M 271.5,179.5 C 265.183,178.906 258.849,178.406 252.5,178C 248.5,176.447 244.667,176.947 241,179.5C 238.599,178.398 236.099,178.231 233.5,179C 234.451,179.718 234.617,180.551 234,181.5C 230.927,180.383 227.76,180.216 224.5,181C 225.793,181.49 227.127,181.657 228.5,181.5C 228.5,182.833 228.5,184.167 228.5,185.5C 226.473,185.338 224.473,185.505 222.5,186C 219.924,190.269 217.257,190.436 214.5,186.5C 210.639,187.843 210.639,189.343 214.5,191C 212.231,191.758 210.064,191.591 208,190.5C 204.106,192.085 203.939,193.085 207.5,193.5C 207.657,194.873 207.49,196.207 207,197.5C 206.255,196.01 205.088,195.01 203.5,194.5C 200.822,196.184 198.156,197.85 195.5,199.5C 199.708,194.125 204.708,189.625 210.5,186C 229.963,174.627 250.297,172.461 271.5,179.5 Z"/></g>
<g><path style="opacity:1" fill="#fafefd" d="M 397.5,241.5 C 397.5,246.833 397.5,252.167 397.5,257.5C 391.833,257.5 386.167,257.5 380.5,257.5C 380.5,262.833 380.5,268.167 380.5,273.5C 375.5,273.5 370.5,273.5 365.5,273.5C 365.5,268.167 365.5,262.833 365.5,257.5C 359.833,257.5 354.167,257.5 348.5,257.5C 348.5,252.167 348.5,246.833 348.5,241.5C 354.167,241.5 359.833,241.5 365.5,241.5C 365.5,236.167 365.5,230.833 365.5,225.5C 370.5,225.5 375.5,225.5 380.5,225.5C 380.5,230.833 380.5,236.167 380.5,241.5C 386.167,241.5 391.833,241.5 397.5,241.5 Z"/></g>
<g><path style="opacity:1" fill="#fafefd" d="M 426.5,225.5 C 431.833,225.5 437.167,225.5 442.5,225.5C 442.5,230.833 442.5,236.167 442.5,241.5C 447.64,242.488 452.974,242.821 458.5,242.5C 458.5,247.167 458.5,251.833 458.5,256.5C 453.305,256.179 448.305,256.513 443.5,257.5C 442.512,262.64 442.179,267.974 442.5,273.5C 437.167,273.5 431.833,273.5 426.5,273.5C 426.5,268.167 426.5,262.833 426.5,257.5C 421.167,257.5 415.833,257.5 410.5,257.5C 410.5,252.167 410.5,246.833 410.5,241.5C 415.833,241.5 421.167,241.5 426.5,241.5C 426.5,236.167 426.5,230.833 426.5,225.5 Z"/></g>
<g><path style="opacity:1" fill="#90b8d9" d="M 397.5,241.5 C 391.833,241.5 386.167,241.5 380.5,241.5C 380.5,236.167 380.5,230.833 380.5,225.5C 375.5,225.5 370.5,225.5 365.5,225.5C 365.5,230.833 365.5,236.167 365.5,241.5C 359.833,241.5 354.167,241.5 348.5,241.5C 353.64,240.512 358.974,240.179 364.5,240.5C 364.5,235.167 364.5,229.833 364.5,224.5C 370.167,224.5 375.833,224.5 381.5,224.5C 381.5,229.833 381.5,235.167 381.5,240.5C 387.026,240.179 392.36,240.512 397.5,241.5 Z"/></g>
<g><path style="opacity:1" fill="#6291b8" d="M 426.5,224.5 C 426.5,224.833 426.5,225.167 426.5,225.5C 426.5,230.833 426.5,236.167 426.5,241.5C 421.167,241.5 415.833,241.5 410.5,241.5C 410.5,246.833 410.5,252.167 410.5,257.5C 410.167,257.5 409.833,257.5 409.5,257.5C 409.5,251.833 409.5,246.167 409.5,240.5C 414.833,240.5 420.167,240.5 425.5,240.5C 425.179,234.974 425.512,229.64 426.5,224.5 Z"/></g>
<g><path style="opacity:1" fill="#6798bf" d="M 426.5,225.5 C 426.5,225.167 426.5,224.833 426.5,224.5C 432.167,224.5 437.833,224.5 443.5,224.5C 443.5,229.833 443.5,235.167 443.5,240.5C 449.026,240.179 454.36,240.512 459.5,241.5C 453.833,241.5 448.167,241.5 442.5,241.5C 442.5,236.167 442.5,230.833 442.5,225.5C 437.167,225.5 431.833,225.5 426.5,225.5 Z"/></g>
<g><path style="opacity:1" fill="#cadff4" d="M 103.5,227.5 C 102.584,239.469 102.251,251.469 102.5,263.5C 101.341,252.341 101.174,241.008 102,229.5C 102.278,228.584 102.778,227.918 103.5,227.5 Z"/></g>
<g><path style="opacity:1" fill="#014481" d="M 250.5,249.5 C 271.755,261.427 292.755,273.76 313.5,286.5C 313.167,286.5 312.833,286.5 312.5,286.5C 310.058,286.119 309.391,286.786 310.5,288.5C 309.009,289.244 307.509,289.91 306,290.5C 305.808,292.577 305.308,294.577 304.5,296.5C 300.657,300.176 296.657,303.676 292.5,307C 291.748,307.671 291.414,308.504 291.5,309.5C 290.426,310.885 289.093,312.051 287.5,313C 281.774,315.621 276.107,318.121 270.5,320.5C 260.655,322.813 250.655,323.813 240.5,323.5C 232.7,321.633 225.033,319.3 217.5,316.5C 217.027,315.094 216.027,314.427 214.5,314.5C 202.572,308.24 193.239,299.24 186.5,287.5C 186.414,286.504 186.748,285.671 187.5,285C 208.231,272.636 229.231,260.803 250.5,249.5 Z"/></g>
<g><path style="opacity:1" fill="#d1ecfd" d="M 442.5,241.5 C 448.167,241.5 453.833,241.5 459.5,241.5C 459.5,246.833 459.5,252.167 459.5,257.5C 454.167,257.5 448.833,257.5 443.5,257.5C 448.305,256.513 453.305,256.179 458.5,256.5C 458.5,251.833 458.5,247.167 458.5,242.5C 452.974,242.821 447.64,242.488 442.5,241.5 Z"/></g>
<g><path style="opacity:1" fill="#5d8db2" d="M 443.5,257.5 C 448.833,257.5 454.167,257.5 459.5,257.5C 454.36,258.488 449.026,258.821 443.5,258.5C 443.821,263.695 443.487,268.695 442.5,273.5C 442.179,267.974 442.512,262.64 443.5,257.5 Z"/></g>
<g><path style="opacity:1" fill="#5788af" d="M 409.5,257.5 C 409.833,257.5 410.167,257.5 410.5,257.5C 415.833,257.5 421.167,257.5 426.5,257.5C 426.5,262.833 426.5,268.167 426.5,273.5C 431.833,273.5 437.167,273.5 442.5,273.5C 437.025,274.489 431.358,274.822 425.5,274.5C 425.5,269.167 425.5,263.833 425.5,258.5C 419.974,258.821 414.64,258.488 409.5,257.5 Z"/></g>
<g><path style="opacity:1" fill="#89b4d7" d="M 348.5,257.5 C 354.167,257.5 359.833,257.5 365.5,257.5C 365.5,262.833 365.5,268.167 365.5,273.5C 370.5,273.5 375.5,273.5 380.5,273.5C 380.5,268.167 380.5,262.833 380.5,257.5C 386.167,257.5 391.833,257.5 397.5,257.5C 392.36,258.488 387.026,258.821 381.5,258.5C 381.5,263.833 381.5,269.167 381.5,274.5C 375.833,274.5 370.167,274.5 364.5,274.5C 364.5,269.167 364.5,263.833 364.5,258.5C 358.974,258.821 353.64,258.488 348.5,257.5 Z"/></g>
<g><path style="opacity:1" fill="#1d4b7a" d="M 312.5,286.5 C 307.963,296.372 300.963,304.039 291.5,309.5C 291.414,308.504 291.748,307.671 292.5,307C 296.657,303.676 300.657,300.176 304.5,296.5C 305.308,294.577 305.808,292.577 306,290.5C 307.509,289.91 309.009,289.244 310.5,288.5C 309.391,286.786 310.058,286.119 312.5,286.5 Z"/></g>
<g><path style="opacity:1" fill="#82a3c3" d="M 214.5,314.5 C 216.027,314.427 217.027,315.094 217.5,316.5C 215.973,316.573 214.973,315.906 214.5,314.5 Z"/></g>
<g><path style="opacity:1" fill="#d8e9f8" d="M 270.5,320.5 C 268.347,322.07 266.181,323.737 264,325.5C 256.068,324.848 248.235,324.181 240.5,323.5C 250.655,323.813 260.655,322.813 270.5,320.5 Z"/></g>
<g><path style="opacity:1" fill="#024481" d="M 375.5,321.5 C 376.833,321.5 378.167,321.5 379.5,321.5C 379.5,322.833 379.5,324.167 379.5,325.5C 391.759,332.155 404.093,338.822 416.5,345.5C 431.961,355.636 447.961,364.636 464.5,372.5C 464.116,374.929 463.449,377.263 462.5,379.5C 461.5,379.5 460.5,379.5 459.5,379.5C 459.5,380.833 459.5,382.167 459.5,383.5C 458.415,385.587 456.749,386.92 454.5,387.5C 450.191,388.343 446.191,389.843 442.5,392C 442.833,392.333 443.167,392.667 443.5,393C 441.881,393.236 440.881,394.069 440.5,395.5C 439.5,395.833 438.833,396.5 438.5,397.5C 438.158,398.338 437.492,398.672 436.5,398.5C 434.326,398.75 432.659,399.75 431.5,401.5C 431.158,402.338 430.492,402.672 429.5,402.5C 427.326,402.75 425.659,403.75 424.5,405.5C 422.326,405.75 420.659,406.75 419.5,408.5C 419.158,409.338 418.492,409.672 417.5,409.5C 415.326,409.75 413.659,410.75 412.5,412.5C 410.326,412.75 408.659,413.75 407.5,415.5C 405.151,417.341 402.485,418.674 399.5,419.5C 396.361,419.599 394.027,420.932 392.5,423.5C 392.5,424.167 392.167,424.5 391.5,424.5C 389.801,424.34 388.134,424.506 386.5,425C 384.717,426.732 382.717,428.232 380.5,429.5C 379.914,429.291 379.414,428.957 379,428.5C 378.59,429.901 378.09,431.234 377.5,432.5C 377.158,433.338 376.492,433.672 375.5,433.5C 373.326,433.75 371.659,434.75 370.5,436.5C 370.158,437.338 369.492,437.672 368.5,437.5C 366.973,437.427 365.973,438.094 365.5,439.5C 365.158,440.338 364.492,440.672 363.5,440.5C 361.326,440.75 359.659,441.75 358.5,443.5C 356.326,443.75 354.659,444.75 353.5,446.5C 351.326,446.75 349.659,447.75 348.5,449.5C 346.326,449.75 344.659,450.75 343.5,452.5C 343.158,453.338 342.492,453.672 341.5,453.5C 339.326,453.75 337.659,454.75 336.5,456.5C 331.658,457.256 326.991,458.59 322.5,460.5C 322.5,461.5 322.5,462.5 322.5,463.5C 320.381,463.468 319.048,464.468 318.5,466.5C 318.158,467.338 317.492,467.672 316.5,467.5C 314.801,467.34 313.134,467.506 311.5,468C 311.833,468.333 312.167,468.667 312.5,469C 308.984,469.731 306.318,471.565 304.5,474.5C 302.473,474.338 300.473,474.505 298.5,475C 297.663,476.011 297.33,477.178 297.5,478.5C 295.326,478.75 293.659,479.75 292.5,481.5C 290.326,481.75 288.659,482.75 287.5,484.5C 287.158,485.338 286.492,485.672 285.5,485.5C 283.973,485.427 282.973,486.094 282.5,487.5C 282.158,488.338 281.492,488.672 280.5,488.5C 278.326,488.75 276.659,489.75 275.5,491.5C 275.158,492.338 274.492,492.672 273.5,492.5C 271.973,492.427 270.973,493.094 270.5,494.5C 267.342,496.551 264.008,498.217 260.5,499.5C 255.5,499.5 250.5,499.5 245.5,499.5C 241.319,498.34 236.985,497.34 232.5,496.5C 230.847,496.34 229.514,495.674 228.5,494.5C 228.027,493.094 227.027,492.427 225.5,492.5C 224.508,492.672 223.842,492.338 223.5,491.5C 223.027,490.094 222.027,489.427 220.5,489.5C 218.847,489.34 217.514,488.674 216.5,487.5C 216.027,486.094 215.027,485.427 213.5,485.5C 211.847,485.34 210.514,484.674 209.5,483.5C 209.027,482.094 208.027,481.427 206.5,481.5C 205.508,481.672 204.842,481.338 204.5,480.5C 204.027,479.094 203.027,478.427 201.5,478.5C 199.847,478.34 198.514,477.674 197.5,476.5C 196.656,474.241 194.989,473.241 192.5,473.5C 192.027,472.094 191.027,471.427 189.5,471.5C 188.508,471.672 187.842,471.338 187.5,470.5C 186.952,467.916 185.285,466.916 182.5,467.5C 182.288,465.616 181.288,464.283 179.5,463.5C 176.205,461.075 172.539,459.742 168.5,459.5C 166.181,459.008 164.181,458.008 162.5,456.5C 161.341,454.75 159.674,453.75 157.5,453.5C 156.341,451.75 154.674,450.75 152.5,450.5C 151.508,450.672 150.842,450.338 150.5,449.5C 149.341,447.75 147.674,446.75 145.5,446.5C 144.341,444.75 142.674,443.75 140.5,443.5C 139.508,443.672 138.842,443.338 138.5,442.5C 138.027,441.094 137.027,440.427 135.5,440.5C 134.508,440.672 133.842,440.338 133.5,439.5C 133.027,438.094 132.027,437.427 130.5,437.5C 129.47,434.808 127.47,433.308 124.5,433C 124.833,432.667 125.167,432.333 125.5,432C 122.487,431.091 119.487,430.258 116.5,429.5C 113.996,428.416 111.663,427.083 109.5,425.5C 109.027,424.094 108.027,423.427 106.5,423.5C 106.677,421.019 105.677,419.186 103.5,418C 100.943,418.281 98.2763,418.114 95.5,417.5C 93.847,417.34 92.5137,416.674 91.5,415.5C 90.3406,413.75 88.674,412.75 86.5,412.5C 85.3406,410.75 83.674,409.75 81.5,409.5C 80.5084,409.672 79.8417,409.338 79.5,408.5C 78.3406,406.75 76.674,405.75 74.5,405.5C 73.3406,403.75 71.674,402.75 69.5,402.5C 68.5084,402.672 67.8417,402.338 67.5,401.5C 67.0269,400.094 66.0269,399.427 64.5,399.5C 62.847,399.34 61.5137,398.674 60.5,397.5C 60.0269,396.094 59.0269,395.427 57.5,395.5C 56.5084,395.672 55.8417,395.338 55.5,394.5C 55.0269,393.094 54.0269,392.427 52.5,392.5C 51.5084,392.672 50.8417,392.338 50.5,391.5C 49.656,389.241 47.9893,388.241 45.5,388.5C 44.7377,386.738 43.4044,385.738 41.5,385.5C 39.8333,384.5 38.5,383.167 37.5,381.5C 36.6996,379.393 36.0329,377.226 35.5,375C 35.8333,374.167 36.1667,373.333 36.5,372.5C 65.0515,356.396 93.3849,340.063 121.5,323.5C 139.527,354.191 165.193,375.858 198.5,388.5C 204.779,391.479 211.446,393.479 218.5,394.5C 220.861,394.674 223.194,395.007 225.5,395.5C 226.609,396.29 227.942,396.79 229.5,397C 241.674,397.826 253.674,397.66 265.5,396.5C 268.237,396.599 270.904,396.265 273.5,395.5C 276.187,395.664 278.854,395.497 281.5,395C 282.416,394.722 283.082,394.222 283.5,393.5C 323.645,383.178 354.811,360.511 377,325.5C 377.484,323.807 376.984,322.473 375.5,321.5 Z"/></g>
<g><path style="opacity:0.706" fill="#83a5c2" d="M 471.5,360.5 C 471.68,364.286 470.68,367.619 468.5,370.5C 468.5,369.5 468.5,368.5 468.5,367.5C 468.98,364.922 469.98,362.588 471.5,360.5 Z"/></g>
<g><path style="opacity:0.663" fill="#6181a5" d="M 468.5,367.5 C 468.5,368.5 468.5,369.5 468.5,370.5C 466.662,375.665 463.662,379.999 459.5,383.5C 459.5,382.167 459.5,380.833 459.5,379.5C 460.5,379.5 461.5,379.5 462.5,379.5C 463.449,377.263 464.116,374.929 464.5,372.5C 465.834,370.804 467.168,369.138 468.5,367.5 Z"/></g>
<g><path style="opacity:0.533" fill="#8ca7c0" d="M 41.5,385.5 C 43.4044,385.738 44.7377,386.738 45.5,388.5C 43.5956,388.262 42.2623,387.262 41.5,385.5 Z"/></g>
<g><path style="opacity:0.824" fill="#6386ad" d="M 45.5,388.5 C 47.9893,388.241 49.656,389.241 50.5,391.5C 48.5659,390.89 46.8993,389.89 45.5,388.5 Z"/></g>
<g><path style="opacity:1" fill="#9fbcd7" d="M 198.5,388.5 C 205.435,389.926 212.101,391.926 218.5,394.5C 211.446,393.479 204.779,391.479 198.5,388.5 Z"/></g>
<g><path style="opacity:0.933" fill="#597ca3" d="M 454.5,387.5 C 450.677,390.916 446.343,393.582 441.5,395.5C 441.167,395.5 440.833,395.5 440.5,395.5C 440.881,394.069 441.881,393.236 443.5,393C 443.167,392.667 442.833,392.333 442.5,392C 446.191,389.843 450.191,388.343 454.5,387.5 Z"/></g>
<g><path style="opacity:0.251" fill="#a5cddf" d="M 52.5,392.5 C 54.0269,392.427 55.0269,393.094 55.5,394.5C 53.9731,394.573 52.9731,393.906 52.5,392.5 Z"/></g>
<g><path style="opacity:1" fill="#5e80a5" d="M 283.5,393.5 C 283.082,394.222 282.416,394.722 281.5,395C 278.854,395.497 276.187,395.664 273.5,395.5C 276.627,394.419 279.96,393.753 283.5,393.5 Z"/></g>
<g><path style="opacity:0.208" fill="#c1d5e4" d="M 57.5,395.5 C 59.0269,395.427 60.0269,396.094 60.5,397.5C 58.9731,397.573 57.9731,396.906 57.5,395.5 Z"/></g>
<g><path style="opacity:1" fill="#a6bfd5" d="M 225.5,395.5 C 238.815,396.333 252.149,396.666 265.5,396.5C 253.674,397.66 241.674,397.826 229.5,397C 227.942,396.79 226.609,396.29 225.5,395.5 Z"/></g>
<g><path style="opacity:0.027" fill="#bddeee" d="M 440.5,395.5 C 440.833,395.5 441.167,395.5 441.5,395.5C 441.027,396.906 440.027,397.573 438.5,397.5C 438.833,396.5 439.5,395.833 440.5,395.5 Z"/></g>
<g><path style="opacity:0.2" fill="#bdd2e3" d="M 436.5,398.5 C 435.341,400.25 433.674,401.25 431.5,401.5C 432.659,399.75 434.326,398.75 436.5,398.5 Z"/></g>
<g><path style="opacity:0.216" fill="#b2d0e4" d="M 64.5,399.5 C 66.0269,399.427 67.0269,400.094 67.5,401.5C 65.9731,401.573 64.9731,400.906 64.5,399.5 Z"/></g>
<g><path style="opacity:0.18" fill="#bdd7ec" d="M 69.5,402.5 C 71.674,402.75 73.3406,403.75 74.5,405.5C 72.326,405.25 70.6594,404.25 69.5,402.5 Z"/></g>
<g><path style="opacity:0.192" fill="#b8d3eb" d="M 429.5,402.5 C 428.341,404.25 426.674,405.25 424.5,405.5C 425.659,403.75 427.326,402.75 429.5,402.5 Z"/></g>
<g><path style="opacity:0.118" fill="#c8e0f1" d="M 74.5,405.5 C 76.674,405.75 78.3406,406.75 79.5,408.5C 77.326,408.25 75.6594,407.25 74.5,405.5 Z"/></g>
<g><path style="opacity:0.125" fill="#c8dff0" d="M 424.5,405.5 C 423.341,407.25 421.674,408.25 419.5,408.5C 420.659,406.75 422.326,405.75 424.5,405.5 Z"/></g>
<g><path style="opacity:0.086" fill="#cfe4f2" d="M 81.5,409.5 C 83.674,409.75 85.3406,410.75 86.5,412.5C 84.326,412.25 82.6594,411.25 81.5,409.5 Z"/></g>
<g><path style="opacity:0.098" fill="#c2e3f2" d="M 417.5,409.5 C 416.341,411.25 414.674,412.25 412.5,412.5C 413.659,410.75 415.326,409.75 417.5,409.5 Z"/></g>
<g><path style="opacity:0.051" fill="#daecf6" d="M 86.5,412.5 C 88.674,412.75 90.3406,413.75 91.5,415.5C 89.326,415.25 87.6594,414.25 86.5,412.5 Z"/></g>
<g><path style="opacity:0.059" fill="#d2eaf4" d="M 412.5,412.5 C 411.341,414.25 409.674,415.25 407.5,415.5C 408.659,413.75 410.326,412.75 412.5,412.5 Z"/></g>
<g><path style="opacity:0.998" fill="#365c8e" d="M 95.5,417.5 C 98.2763,418.114 100.943,418.281 103.5,418C 105.677,419.186 106.677,421.019 106.5,423.5C 102.345,422.258 98.678,420.258 95.5,417.5 Z"/></g>
<g><path style="opacity:0.718" fill="#6284a9" d="M 399.5,419.5 C 397.664,421.588 395.331,422.921 392.5,423.5C 394.027,420.932 396.361,419.599 399.5,419.5 Z"/></g>
<g><path style="opacity:0.337" fill="#8daac8" d="M 106.5,423.5 C 108.027,423.427 109.027,424.094 109.5,425.5C 107.973,425.573 106.973,424.906 106.5,423.5 Z"/></g>
<g><path style="opacity:0.757" fill="#6480a3" d="M 391.5,424.5 C 387.167,427.669 382.5,430.336 377.5,432.5C 378.09,431.234 378.59,429.901 379,428.5C 379.414,428.957 379.914,429.291 380.5,429.5C 382.717,428.232 384.717,426.732 386.5,425C 388.134,424.506 389.801,424.34 391.5,424.5 Z"/></g>
<g><path style="opacity:0.824" fill="#5e81a8" d="M 116.5,429.5 C 119.487,430.258 122.487,431.091 125.5,432C 125.167,432.333 124.833,432.667 124.5,433C 127.47,433.308 129.47,434.808 130.5,437.5C 125.5,435.336 120.833,432.669 116.5,429.5 Z"/></g>
<g><path style="opacity:0.255" fill="#9eb9d4" d="M 375.5,433.5 C 374.341,435.25 372.674,436.25 370.5,436.5C 371.659,434.75 373.326,433.75 375.5,433.5 Z"/></g>
<g><path style="opacity:0.251" fill="#aac7dc" d="M 130.5,437.5 C 132.027,437.427 133.027,438.094 133.5,439.5C 131.973,439.573 130.973,438.906 130.5,437.5 Z"/></g>
<g><path style="opacity:0.051" fill="#bcd4e5" d="M 368.5,437.5 C 368.027,438.906 367.027,439.573 365.5,439.5C 365.973,438.094 366.973,437.427 368.5,437.5 Z"/></g>
<g><path style="opacity:0.216" fill="#c0d1e6" d="M 135.5,440.5 C 137.027,440.427 138.027,441.094 138.5,442.5C 136.973,442.573 135.973,441.906 135.5,440.5 Z"/></g>
<g><path style="opacity:0.224" fill="#a9c8db" d="M 363.5,440.5 C 362.341,442.25 360.674,443.25 358.5,443.5C 359.659,441.75 361.326,440.75 363.5,440.5 Z"/></g>
<g><path style="opacity:0.176" fill="#c6d9ed" d="M 140.5,443.5 C 142.674,443.75 144.341,444.75 145.5,446.5C 143.326,446.25 141.659,445.25 140.5,443.5 Z"/></g>
<g><path style="opacity:0.196" fill="#b9d3e7" d="M 358.5,443.5 C 357.341,445.25 355.674,446.25 353.5,446.5C 354.659,444.75 356.326,443.75 358.5,443.5 Z"/></g>
<g><path style="opacity:0.118" fill="#c9e5f3" d="M 145.5,446.5 C 147.674,446.75 149.341,447.75 150.5,449.5C 148.326,449.25 146.659,448.25 145.5,446.5 Z"/></g>
<g><path style="opacity:0.129" fill="#c7e0f0" d="M 353.5,446.5 C 352.341,448.25 350.674,449.25 348.5,449.5C 349.659,447.75 351.326,446.75 353.5,446.5 Z"/></g>
<g><path style="opacity:0.078" fill="#d4eaf6" d="M 348.5,449.5 C 347.341,451.25 345.674,452.25 343.5,452.5C 344.659,450.75 346.326,449.75 348.5,449.5 Z"/></g>
<g><path style="opacity:0.086" fill="#c8e1f0" d="M 152.5,450.5 C 154.674,450.75 156.341,451.75 157.5,453.5C 155.326,453.25 153.659,452.25 152.5,450.5 Z"/></g>
<g><path style="opacity:0.039" fill="#d5eaf4" d="M 157.5,453.5 C 159.674,453.75 161.341,454.75 162.5,456.5C 160.326,456.25 158.659,455.25 157.5,453.5 Z"/></g>
<g><path style="opacity:0.039" fill="#d6ebf2" d="M 341.5,453.5 C 340.341,455.25 338.674,456.25 336.5,456.5C 337.659,454.75 339.326,453.75 341.5,453.5 Z"/></g>
<g><path style="opacity:0.98" fill="#57749b" d="M 336.5,456.5 C 330.76,460.226 324.76,463.56 318.5,466.5C 319.048,464.468 320.381,463.468 322.5,463.5C 322.5,462.5 322.5,461.5 322.5,460.5C 326.991,458.59 331.658,457.256 336.5,456.5 Z"/></g>
<g><path style="opacity:0.992" fill="#40638e" d="M 168.5,459.5 C 172.539,459.742 176.205,461.075 179.5,463.5C 181.288,464.283 182.288,465.616 182.5,467.5C 177.5,465.336 172.833,462.669 168.5,459.5 Z"/></g>
<g><path style="opacity:0.949" fill="#6280a3" d="M 182.5,467.5 C 185.285,466.916 186.952,467.916 187.5,470.5C 185.326,470.25 183.659,469.25 182.5,467.5 Z"/></g>
<g><path style="opacity:0.941" fill="#627fa3" d="M 316.5,467.5 C 312.836,470.335 308.836,472.668 304.5,474.5C 306.318,471.565 308.984,469.731 312.5,469C 312.167,468.667 311.833,468.333 311.5,468C 313.134,467.506 314.801,467.34 316.5,467.5 Z"/></g>
<g><path style="opacity:0.42" fill="#96b5ce" d="M 189.5,471.5 C 191.027,471.427 192.027,472.094 192.5,473.5C 190.973,473.573 189.973,472.906 189.5,471.5 Z"/></g>
<g><path style="opacity:1" fill="#708dae" d="M 192.5,473.5 C 194.989,473.241 196.656,474.241 197.5,476.5C 195.566,475.89 193.899,474.89 192.5,473.5 Z"/></g>
<g><path style="opacity:1" fill="#5c7b9f" d="M 304.5,474.5 C 302.664,476.588 300.331,477.921 297.5,478.5C 297.33,477.178 297.663,476.011 298.5,475C 300.473,474.505 302.473,474.338 304.5,474.5 Z"/></g>
<g><path style="opacity:0.341" fill="#a6c6d9" d="M 201.5,478.5 C 203.027,478.427 204.027,479.094 204.5,480.5C 202.973,480.573 201.973,479.906 201.5,478.5 Z"/></g>
<g><path style="opacity:0.361" fill="#9bb8d1" d="M 297.5,478.5 C 296.341,480.25 294.674,481.25 292.5,481.5C 293.659,479.75 295.326,478.75 297.5,478.5 Z"/></g>
<g><path style="opacity:0.255" fill="#bcd2e3" d="M 206.5,481.5 C 208.027,481.427 209.027,482.094 209.5,483.5C 207.973,483.573 206.973,482.906 206.5,481.5 Z"/></g>
<g><path style="opacity:0.271" fill="#a9c6e1" d="M 292.5,481.5 C 291.341,483.25 289.674,484.25 287.5,484.5C 288.659,482.75 290.326,481.75 292.5,481.5 Z"/></g>
<g><path style="opacity:0.243" fill="#b7d3e7" d="M 213.5,485.5 C 215.027,485.427 216.027,486.094 216.5,487.5C 214.973,487.573 213.973,486.906 213.5,485.5 Z"/></g>
<g><path style="opacity:0.043" fill="#c5e1f1" d="M 285.5,485.5 C 285.027,486.906 284.027,487.573 282.5,487.5C 282.973,486.094 283.973,485.427 285.5,485.5 Z"/></g>
<g><path style="opacity:0.188" fill="#bbd4e8" d="M 280.5,488.5 C 279.341,490.25 277.674,491.25 275.5,491.5C 276.659,489.75 278.326,488.75 280.5,488.5 Z"/></g>
<g><path style="opacity:0.239" fill="#b2d0e4" d="M 220.5,489.5 C 222.027,489.427 223.027,490.094 223.5,491.5C 221.973,491.573 220.973,490.906 220.5,489.5 Z"/></g>
<g><path style="opacity:0.169" fill="#c5d8ed" d="M 225.5,492.5 C 227.027,492.427 228.027,493.094 228.5,494.5C 226.973,494.573 225.973,493.906 225.5,492.5 Z"/></g>
<g><path style="opacity:0.02" fill="#d7e9f6" d="M 273.5,492.5 C 273.027,493.906 272.027,494.573 270.5,494.5C 270.973,493.094 271.973,492.427 273.5,492.5 Z"/></g>
<g><path style="opacity:0.89" fill="#85a8c8" d="M 232.5,496.5 C 236.985,497.34 241.319,498.34 245.5,499.5C 242.833,499.5 240.167,499.5 237.5,499.5C 235.928,498.313 234.261,497.313 232.5,496.5 Z"/></g>
</svg>
